<svg xmlns="http://www.w3.org/2000/svg" width="600" height="400" viewBox="0 0 600 400">
  <rect width="600" height="400" fill="#F5F5F5"/>
  <path d="M300 120 L280 180 L280 280 L300 280 L320 280 L320 180 Z" fill="#8B7355" stroke="#6B5A45" stroke-width="2"/>
  <path d="M280 180 L220 200 L220 260 L280 280" fill="none" stroke="#6B5A45" stroke-width="2"/>
  <path d="M320 180 L380 200 L380 260 L320 280" fill="none" stroke="#6B5A45" stroke-width="2"/>
  <path d="M220 260 L220 320 M280 280 L280 340 M320 280 L320 340 M380 260 L380 320" stroke="#6B5A45" stroke-width="3" stroke-linecap="round"/>
  <path d="M220 200 Q250 190 280 180 Q300 175 320 180 Q350 190 380 200" fill="#D4A574" stroke="#6B5A45" stroke-width="2"/>
  <text x="300" y="380" font-family="Arial, sans-serif" font-size="14" fill="#999" text-anchor="middle">Elegant Chair</text>
</svg>